<?xml version="1.0" standalone="no"?><!DOCTYPE svg PUBLIC "-//W3C//DTD SVG 1.1//EN" "http://www.w3.org/Graphics/SVG/1.1/DTD/svg11.dtd"><svg class="icon" width="200px" height="200.00px" viewBox="0 0 1024 1024" version="1.1" xmlns="http://www.w3.org/2000/svg"><path fill="currentColor" d="M767.01 959.839c-5.332 0-10.664-1.376-15.48-3.957L510.194 822.055 268.342 955.022c-10.665 5.849-23.91 5.16-33.887-1.892s-15.137-19.265-13.073-31.306l46.96-284.684-196.44-202.116c-8.257-8.429-11.181-20.986-7.397-32.167 3.613-11.353 13.245-19.61 24.942-21.674l154.985-26.662c17.545-2.924 34.059 8.773 36.983 26.146s-8.773 33.887-26.146 36.983l-95.124 16.342 165.306 170.122c7.052 7.224 10.32 17.545 8.6 27.522l-38.875 235.66L494.713 757.55a31.963 31.963 0 0 1 30.962 0l199.192 110.433-38.015-235.831c-1.548-9.977 1.548-20.298 8.773-27.522L860.243 436.4l-225.51-34.747c-10.494-1.548-19.61-8.429-24.083-18.062l-99.252-212.437-100.112 211.75c-7.569 15.997-26.662 22.877-42.66 15.309-15.997-7.569-22.878-26.663-15.309-42.66L482.5 82.051c5.332-11.181 16.513-18.406 28.898-18.406 12.385 0 23.738 7.225 28.898 18.406L661.05 340.588l270.406 41.8c11.87 1.892 21.674 10.148 25.458 21.501 3.785 11.353 0.86 23.91-7.568 32.51L752.39 637.657l45.927 284.856c1.893 12.04-3.268 24.254-13.245 31.306-5.16 4.129-11.525 6.02-18.061 6.02z" /></svg>